<svg id="Layer_1" data-name="Layer 1" xmlns="http://www.w3.org/2000/svg" viewBox="0 0 64 64" class="svg-logo" fill="white"><path d="M28.92,36.07a6,6,0,0,0,3.25,1.42,2.31,2.31,0,0,1,1.53,1.42,1.57,1.57,0,0,1,.6-.81c.61-.41,1.53-.41,2.34-.91A3,3,0,0,0,37.76,34a3.44,3.44,0,0,0-1.22-1.83,1.91,1.91,0,0,1,.2,1.93c-.2.51-1,1.12-1.42.51a1.75,1.75,0,0,1-.1-.71,1.42,1.42,0,0,1,.2-.61c.1-.2.31-.41.41-.61a2,2,0,0,0,.3-.81,1.21,1.21,0,0,0-.2-1,.68.68,0,0,1-.41.81h-.3a.68.68,0,0,1-.51-.4,1,1,0,0,1,.2-.92.64.64,0,0,1,.71-.2,6.1,6.1,0,0,0-1.11-1.93A2.66,2.66,0,0,1,34,25.71v-.1a2.5,2.5,0,0,1,2-1.42,4.74,4.74,0,0,0-2.64.71c-1.93,1.42-.61,3.35-.51,3.66s.21.4-.4.4a1,1,0,0,1-1.12-.81,1.89,1.89,0,0,0,.51,2.64,1.69,1.69,0,0,1,.4,1.93,1.78,1.78,0,0,1-.61.91,1.44,1.44,0,0,1-1.92-.5,1.81,1.81,0,0,1,0-2A2.71,2.71,0,0,0,28,32.72a.37.37,0,0,0-.1.3v.31A3.13,3.13,0,0,0,28.92,36.07Z"/><path d="M32,0A32,32,0,1,0,64,32,32,32,0,0,0,32,0ZM51.77,25.41A13.14,13.14,0,0,0,45,28.66c-3.14,2.84-4.16,9-4.16,9H39.58l-.71,1.93h1l1.72,5.59H24.66l1.73-5.59h1l-.71-1.93H25.47l-2.23-6a37.91,37.91,0,0,1-5.79-.6c-2.74-.51-6.09-1.43-8-3.66a7.88,7.88,0,0,1-1-1.52,5,5,0,0,1-.31-1H20.29l-.71-3H51.77Z"/></svg>