<?xml version="1.0" encoding="utf-8"?>
<!-- Generator: Adobe Illustrator 16.0.0, SVG Export Plug-In . SVG Version: 6.00 Build 0)  -->
<!DOCTYPE svg PUBLIC "-//W3C//DTD SVG 1.1//EN" "http://www.w3.org/Graphics/SVG/1.1/DTD/svg11.dtd">
<svg version="1.1" id="Ebene_1" xmlns="http://www.w3.org/2000/svg" xmlns:xlink="http://www.w3.org/1999/xlink" x="0px" y="0px"
	 width="500px" height="500px" viewBox="0 0 500 500" enable-background="new 0 0 500 500" xml:space="preserve">
<g>
	
		<linearGradient id="SVGID_1_" gradientUnits="userSpaceOnUse" x1="-486.0186" y1="924.2051" x2="-657.4529" y2="1217.4812" gradientTransform="matrix(1 0 0 -1 829.1001 1312.4004)">
		<stop  offset="0" style="stop-color:#FCEE21"/>
		<stop  offset="0.4709" style="stop-color:#F6A723"/>
		<stop  offset="0.8238" style="stop-color:#F27924"/>
		<stop  offset="1" style="stop-color:#F16724"/>
	</linearGradient>
	<path fill="url(#SVGID_1_)" d="M266.511,28.226c-66.834,45.069-22.422,110.805-16.708,120.698
		c5.277,9.232,1.759,28.8-17.147,30.118c-28.364,1.761-33.857-42.65-33.857-42.65c-20.886,21.764-15.39,61.119,16.27,88.16
		c19.565,16.71,20.005,41.993,13.41,65.294c-3.518,12.312-10.334,23.967-20.665,31.438c-21.985,16.05-50.788,5.497-64.418-16.267
		c-21.986-35.177,0.88-69.475,0.88-69.475c-34.297,13.191-52.104,33.419-59.141,55.184c0,0,0,0,0-0.221c0,0-0.219,0.44-0.44,1.1
		c-0.659,2.199-1.537,6.376-2.199,8.574c-0.438,2.419,0,3.077-0.22,5.498c-0.218,1.315-0.218,2.417-0.218,3.736
		c-2.42,22.423,2.417,58.697,36.055,90.576c49.686,46.83,86.84,37.375,107.507,42.653c20.445,5.273,38.253,12.091,51.666,42.648
		c0,0,3.957-10.331,16.268-18.688c19.788-13.628,52.105-14.288,80.246-32.539c28.141-18.246,49.027-54.959,33.854-98.271
		c-16.268-46.607-30.119-55.4-30.337-55.4c12.312,18.247,11.434,36.054,2.416,56.279c-7.031,15.83-40.231,39.572-53.642,19.128
		c-4.396-6.816-7.255-18.688-5.718-26.604c1.321-7.474,4.399-17.147,7.695-24.183c3.298-7.034,7.919-16.268,12.533-22.645
		c6.153-8.354,11.651-14.95,13.412-25.061c1.318-8.577,5.495-15.611-3.08-21.107c2.857,10.333-5.497,16.709-14.946,21.107
		c-0.662,0.438-1.982,0-3.3-0.44c-1.1-0.441-2.199-0.882-2.858-0.66c-2.859,0.66-3.079-2.638-5.718-3.078
		c-7.036-1.318-14.29-6.377-17.366-13.41c-4.618-10.555-1.319-23.524,6.375-31.878c6.816-7.257,16.048-9.014,25.283-5.717
		c-4.617-27.481-22.863-44.63-36.493-64.856c-17.591-26.381-27.044-56.721-15.613-85.741c0.222-0.659,0.441-1.099,0.662-1.759
		c10.77-25.501,41.771-42.651,68.592-47.048c-1.537,0-3.077,0-4.617,0C304.547,3.384,266.511,28.226,266.511,28.226"/>
	<path fill="#F16724" d="M411.174,332.938c-16.271-46.606-40.893-59.798-40.893-59.798c12.312,18.248,14.947,43.75,5.935,63.975
		c-7.035,15.83-33.417,36.937-47.048,16.489c-4.396-6.815-5.057-15.391-3.736-23.303c1.318-7.476,3.077-15.171,6.374-21.985
		c3.299-7.035,8.796-14.511,13.415-20.885c5.932-8.358,10.111-18.469,11.648-28.581c1.319-8.575,0.441-27.482-7.914-32.978
		c2.856,10.332-4.177,21.985-13.851,26.382c-1.318,0.658-2.858,1.1-4.175,1.536c-2.421,0.661-4.839,0.661-7.258,0.44
		c-14.07,6.596-25.721,14.071-34.956,21.107c-6.377,4.616-12.53,10.113-18.906,16.707c-4.177,4.178-6.156,7.037-6.156,7.037l0,0
		c-5.275,6.373-10.553,13.848-15.609,22.202c-14.511,24.404-14.948,69.033-2.857,101.571l-13.412-10.112
		c-0.44-0.22-0.659-0.439-1.098-0.66c-52.324-33.196-134.989-40.673-147.08-100.692c-0.219-1.317-0.438-3.075-0.878-4.835l0,0
		c-0.222-1.538-0.441-3.078-0.441-5.058c-0.438,1.759-0.657,3.52-0.879,5.278c-0.219,1.318-0.219,2.638-0.438,3.737
		c-2.42,22.424-0.222,60.677,33.416,92.557c49.688,46.827,87.28,43.529,107.728,48.808c20.447,5.274,39.352,16.928,52.764,47.485
		c0,0,8.794-17.587,21.105-25.943c19.786-13.631,50.783-13.408,78.928-31.657C403.479,422.855,426.342,376.028,411.174,332.938"/>
</g>
</svg>
