<svg id="Layer_1" data-name="Layer 1" xmlns="http://www.w3.org/2000/svg" viewBox="0 0 64 64"><path d="M37.34,30.49h0a3.2,3.2,0,1,0,3,3.18A3.13,3.13,0,0,0,37.34,30.49Z"/><path d="M26.49,30.49h0a3.2,3.2,0,1,0,3,3.18A3.13,3.13,0,0,0,26.48,30.49Z"/><path d="M32-.14A32.14,32.14,0,1,0,64.14,32,32.14,32.14,0,0,0,32-.14Zm8.1,44S39,42.61,38.2,41.5a9.47,9.47,0,0,0,5.26-3.36,31.09,31.09,0,0,1-3.33,1.76,22.13,22.13,0,0,1-4.3,1.28,24.55,24.55,0,0,1-7.67,0,20,20,0,0,1-4.3-1.28c-.64-.31-1.43-.63-2.22-.95-.07,0-.1,0-.14-.08h0a.18.18,0,0,0-.15-.07h-.14a8.31,8.31,0,0,0-.8-.48,9.39,9.39,0,0,0,5.11,3.35c-1,1.12-1.92,2.4-1.92,2.4-6.55-.16-8.94-4.32-8.94-4.32A37.38,37.38,0,0,1,19,23a14.37,14.37,0,0,1,8.31-3l.32.33c-5.28,1.27-7.67,3.67-7.67,3.67s.64-.32,1.76-.81a21.47,21.47,0,0,1,6.71-1.75h.48a24.82,24.82,0,0,1,5.91,0,25.86,25.86,0,0,1,8.94,2.72,19.33,19.33,0,0,0-7.35-3.68l.44-.43A14.35,14.35,0,0,1,45,23a37.24,37.24,0,0,1,4.34,16.76A12.45,12.45,0,0,1,40.1,43.89Z"/></svg>