<svg id="Layer_1" data-name="Layer 1" xmlns="http://www.w3.org/2000/svg" viewBox="0 0 64 64" fill="currentColor"><path d="M64.28,32.28A32.28,32.28,0,1,0,23.54,63.43a1.87,1.87,0,0,0,.17-.76c0-.79,0-2.9-.05-5.69-9.3,2-11.26-4.49-11.26-4.49-1.53-3.86-3.72-4.89-3.72-4.89-3-2.07.23-2,.23-2C12.27,45.8,14,49,14,49c3,5.11,7.83,3.63,9.75,2.78a7.16,7.16,0,0,1,2.11-4.48c-7.42-.83-15.23-3.71-15.23-16.53a12.87,12.87,0,0,1,3.44-9A11.88,11.88,0,0,1,14.39,13s2.8-.9,9.2,3.43a31.53,31.53,0,0,1,16.73,0C46.67,12.06,49.48,13,49.48,13a12.25,12.25,0,0,1,.33,8.86,13,13,0,0,1,3.43,9c0,12.85-7.82,15.68-15.26,16.51,1.17,1,2.25,3.05,2.25,6.18,0,4.48,0,8.08,0,9.16a1.91,1.91,0,0,0,.18.81A32.27,32.27,0,0,0,64.28,32.28Z"/></svg>